<svg xmlns="http://www.w3.org/2000/svg" viewBox="0 0 32 32" id="clock"><g data-name="Layer 2"><path fill="#fcae18" d="M24.57,4a15,15,0,1,0,6.88,12.61A14.93,14.93,0,0,0,24.57,4ZM16.95,16.78l-5.22,4.84L11,20.89l4.9-4.54V6.57h1Z"></path><polygon points="10.72 20.48 10.04 19.75 14.95 15.21 14.95 5.43 15.95 5.43 15.95 15.65 10.72 20.48"></polygon><path fill="#f94819" d="M31.45,16.57a15,15,0,0,1-6.88,12.61V4A15,15,0,0,1,31.45,16.57Z"></path><path d="M15.45.43A15,15,0,0,0,.55,13.72h2a13,13,0,1,1,.14,4.33h-2A15,15,0,1,0,15.45.43Z"></path></g></svg>